HIERARCHY
ROOT Hips
{
    OFFSET   0.000000   0.000000   0.000000
    CHANNELS 6 Xposition Yposition Zposition Zrotation Xrotation Yrotation
    JOINT Chest
    {
        OFFSET   0.000000   8.007240   0.000000
        CHANNELS 3 Zrotation Xrotation Yrotation
        JOINT Chest2
        {
            OFFSET   0.000000  22.077100   0.000000
            CHANNELS 3 Zrotation Xrotation Yrotation
            JOINT Neck
            {
                OFFSET   0.000000  23.254800   0.000000
                CHANNELS 3 Zrotation Xrotation Yrotation
                JOINT Head
                {
                    OFFSET   0.000000  14.370000   1.956600
                    CHANNELS 3 Zrotation Xrotation Yrotation
                    End Site
                    {
                        OFFSET   0.000000  19.566000   0.000000
                    }
                }
            }
            JOINT LeftCollar
            {
                OFFSET   3.911900  19.017000  -0.467064
                CHANNELS 3 Zrotation Xrotation Yrotation
                JOINT LeftShoulder
                {
                    OFFSET  10.383700   0.000000   0.000000
                    CHANNELS 3 Zrotation Xrotation Yrotation
                    JOINT LeftElbow
                    {
                        OFFSET  26.662100   0.001476   0.000517
                        CHANNELS 3 Zrotation Xrotation Yrotation
                        JOINT LeftWrist
                        {
                            OFFSET  28.869000  -0.000025  -0.000106
                            CHANNELS 3 Zrotation Xrotation Yrotation
                            JOINT LeftFinger0
                            {
                                OFFSET   2.044660  -2.323460   3.252850
                                CHANNELS 3 Zrotation Xrotation Yrotation
                                JOINT LeftFinger01
                                {
                                    OFFSET   3.088130   0.000000   0.000000
                                    CHANNELS 3 Zrotation Xrotation Yrotation
                                    JOINT LeftFinger02
                                    {
                                        OFFSET   2.639460   0.000000   0.000000
                                        CHANNELS 3 Zrotation Xrotation Yrotation
                                        End Site
                                        {
                                            OFFSET   2.582190   0.000000   0.000000
                                        }
                                    }
                                }
                            }
                            JOINT LeftFinger1
                            {
                                OFFSET   8.364480   0.000000   3.252850
                                CHANNELS 3 Zrotation Xrotation Yrotation
                                JOINT LeftFinger11
                                {
                                    OFFSET   4.646930   0.000000   0.000000
                                    CHANNELS 3 Zrotation Xrotation Yrotation
                                    JOINT LeftFinger12
                                    {
                                        OFFSET   2.323460   0.000000   0.000000
                                        CHANNELS 3 Zrotation Xrotation Yrotation
                                        End Site
                                        {
                                            OFFSET   2.273050   0.000000   0.000000
                                        }
                                    }
                                }
                            }
                            JOINT LeftFinger2
                            {
                                OFFSET   8.364490   0.000015   1.078090
                                CHANNELS 3 Zrotation Xrotation Yrotation
                                JOINT LeftFinger21
                                {
                                    OFFSET   5.111620   0.000000   0.000000
                                    CHANNELS 3 Zrotation Xrotation Yrotation
                                    JOINT LeftFinger22
                                    {
                                        OFFSET   2.788160   0.000016   0.000000
                                        CHANNELS 3 Zrotation Xrotation Yrotation
                                        End Site
                                        {
                                            OFFSET   2.727660   0.000000   0.000000
                                        }
                                    }
                                }
                            }
                            JOINT LeftFinger3
                            {
                                OFFSET   7.899780   0.000017  -1.078090
                                CHANNELS 3 Zrotation Xrotation Yrotation
                                JOINT LeftFinger31
                                {
                                    OFFSET   4.646930   0.000000   0.000000
                                    CHANNELS 3 Zrotation Xrotation Yrotation
                                    JOINT LeftFinger32
                                    {
                                        OFFSET   2.323470   0.000000   0.000000
                                        CHANNELS 3 Zrotation Xrotation Yrotation
                                        End Site
                                        {
                                            OFFSET   2.273050   0.000000   0.000000
                                        }
                                    }
                                }
                            }
                            JOINT LeftFinger4
                            {
                                OFFSET   7.435090   0.000000  -3.252850
                                CHANNELS 3 Zrotation Xrotation Yrotation
                                JOINT LeftFinger41
                                {
                                    OFFSET   3.717550   0.000000   0.000000
                                    CHANNELS 3 Zrotation Xrotation Yrotation
                                    JOINT LeftFinger42
                                    {
                                        OFFSET   1.858770   0.000000   0.000000
                                        CHANNELS 3 Zrotation Xrotation Yrotation
                                        End Site
                                        {
                                            OFFSET   1.818440   0.000000   0.000000
                                        }
                                    }
                                }
                            }
                        }
                    }
                }
            }
            JOINT RightCollar
            {
                OFFSET  -3.911900  19.017000  -0.467063
                CHANNELS 3 Zrotation Xrotation Yrotation
                JOINT RightShoulder
                {
                    OFFSET -10.383700   0.000019   0.000000
                    CHANNELS 3 Zrotation Xrotation Yrotation
                    JOINT RightElbow
                    {
                        OFFSET -26.662100   0.001175   0.000102
                        CHANNELS 3 Zrotation Xrotation Yrotation
                        JOINT RightWrist
                        {
                            OFFSET -28.869000   0.000016  -0.000079
                            CHANNELS 3 Zrotation Xrotation Yrotation
                            JOINT RightFinger0
                            {
                                OFFSET  -2.044660  -2.323490   3.252850
                                CHANNELS 3 Zrotation Xrotation Yrotation
                                JOINT RightFinger01
                                {
                                    OFFSET  -3.088140   0.000000   0.000000
                                    CHANNELS 3 Zrotation Xrotation Yrotation
                                    JOINT RightFinger02
                                    {
                                        OFFSET  -2.639460   0.000000   0.000000
                                        CHANNELS 3 Zrotation Xrotation Yrotation
                                        End Site
                                        {
                                            OFFSET  -2.582190   0.000000   0.000000
                                        }
                                    }
                                }
                            }
                            JOINT RightFinger1
                            {
                                OFFSET  -8.364480   0.000000   3.252850
                                CHANNELS 3 Zrotation Xrotation Yrotation
                                JOINT RightFinger11
                                {
                                    OFFSET  -4.646930   0.000000   0.000000
                                    CHANNELS 3 Zrotation Xrotation Yrotation
                                    JOINT RightFinger12
                                    {
                                        OFFSET  -2.323470   0.000000   0.000000
                                        CHANNELS 3 Zrotation Xrotation Yrotation
                                        End Site
                                        {
                                            OFFSET  -2.273050   0.000000   0.000000
                                        }
                                    }
                                }
                            }
                            JOINT RightFinger2
                            {
                                OFFSET  -8.364480   0.000000   1.078090
                                CHANNELS 3 Zrotation Xrotation Yrotation
                                JOINT RightFinger21
                                {
                                    OFFSET  -5.111620   0.000000   0.000000
                                    CHANNELS 3 Zrotation Xrotation Yrotation
                                    JOINT RightFinger22
                                    {
                                        OFFSET  -2.788160   0.000000   0.000000
                                        CHANNELS 3 Zrotation Xrotation Yrotation
                                        End Site
                                        {
                                            OFFSET  -2.727660   0.000000   0.000000
                                        }
                                    }
                                }
                            }
                            JOINT RightFinger3
                            {
                                OFFSET  -7.899780   0.000000  -1.078090
                                CHANNELS 3 Zrotation Xrotation Yrotation
                                JOINT RightFinger31
                                {
                                    OFFSET  -4.646930   0.000000   0.000000
                                    CHANNELS 3 Zrotation Xrotation Yrotation
                                    JOINT RightFinger32
                                    {
                                        OFFSET  -2.323470   0.000000   0.000000
                                        CHANNELS 3 Zrotation Xrotation Yrotation
                                        End Site
                                        {
                                            OFFSET  -2.273050   0.000000   0.000000
                                        }
                                    }
                                }
                            }
                            JOINT RightFinger4
                            {
                                OFFSET  -7.435090   0.000000  -3.252850
                                CHANNELS 3 Zrotation Xrotation Yrotation
                                JOINT RightFinger41
                                {
                                    OFFSET  -3.717550   0.000000   0.000000
                                    CHANNELS 3 Zrotation Xrotation Yrotation
                                    JOINT RightFinger42
                                    {
                                        OFFSET  -1.858770   0.000000   0.000000
                                        CHANNELS 3 Zrotation Xrotation Yrotation
                                        End Site
                                        {
                                            OFFSET  -1.818440   0.000000   0.000000
                                        }
                                    }
                                }
                            }
                        }
                    }
                }
            }
        }
    }
    JOINT LeftHip
    {
        OFFSET   9.783040   0.000000   0.000000
        CHANNELS 3 Zrotation Xrotation Yrotation
        JOINT LeftKnee
        {
            OFFSET   0.000032 -41.789100  -0.002222
            CHANNELS 3 Zrotation Xrotation Yrotation
            JOINT LeftAnkle
            {
                OFFSET   0.000087 -41.133200  -0.000135
                CHANNELS 3 Zrotation Xrotation Yrotation
                JOINT LeftToe
                {
                    OFFSET   0.000000  -6.358960  14.674500
                    CHANNELS 3 Zrotation Xrotation Yrotation
                    End Site
                    {
                        OFFSET   0.000000   0.000000   3.913200
                    }
                }
            }
        }
    }
    JOINT RightHip
    {
        OFFSET  -9.783040   0.000000   0.000000
        CHANNELS 3 Zrotation Xrotation Yrotation
        JOINT RightKnee
        {
            OFFSET   0.000047 -41.789100  -0.000896
            CHANNELS 3 Zrotation Xrotation Yrotation
            JOINT RightAnkle
            {
                OFFSET  -0.000117 -41.133300  -0.000248
                CHANNELS 3 Zrotation Xrotation Yrotation
                JOINT RightToe
                {
                    OFFSET   0.000000  -6.358970  14.674500
                    CHANNELS 3 Zrotation Xrotation Yrotation
                    End Site
                    {
                        OFFSET   0.000000   0.000000   3.913200
                    }
                }
            }
        }
    }
}
MOTION
Frames: 5
Frame Time:   0.016667
  2.222680  89.481400  -0.467672  -1.799770  -6.040250   1.805730   0.531429   3.514670  -1.613640   1.165300   7.012770  -3.269170   1.329410   0.067398   0.000443   2.185510   0.136298   5.464390  -3.922030   1.567290   1.761240 -69.743200  18.004400  -6.954680  -2.439320  -4.087390  -9.353510   9.347290  -2.512030  13.296600  43.010000  34.168700 -67.304200 -25.848500   0.000111   0.000147  -7.924280  -0.001655   0.011945 -42.701300   8.397740  -8.989410 -35.471800  -0.002726  -0.005846 -25.502900  -0.003278  -0.004855 -33.945900   3.218420  -4.772120 -51.120000  -0.011724  -0.005074 -34.046000  -0.004724  -0.004114 -34.516300  -0.219127   0.318719 -51.756900   0.001332  -0.000591 -34.482200   0.000000  -0.000457 -48.195000  -3.826760   3.411380 -72.467800   0.001328   0.001524 -48.260500   0.009237   0.001345   8.510130  -0.392884   9.581280  69.840100   9.866140  -3.453500   0.271364  -2.723080   8.085060 -13.257100 -14.267100  -1.621820 -42.753500  32.512800  64.385900  25.106200  -0.000173  -0.007836   7.553120  -0.002484  -0.000814  38.570400  11.377800  13.897200  32.695700   0.001215  -0.001231  22.946700   0.005253   0.007291  32.411100   4.909190   7.669910  49.112200  -0.001266  -0.008017  32.708700   0.002009   0.001164  32.533700   2.354760   3.670200  48.914200  -0.001833  -0.003998  32.576900  -0.006088  -0.004905  46.738100  -3.279200  -3.085980  70.239200  -0.003110  -0.000182  46.779300  -0.011167  -0.001700   3.077710  10.228400  -0.695406   1.121840   0.466474   2.667910  -2.838740  -4.049870  -1.344780   0.000000   0.000000  -0.000000   0.222912   4.666490  -2.368810   1.507200   5.066720  -1.148790  -3.547270  -2.855560  -2.913370   0.000000   0.000000  -0.000000
  2.216410  89.481400  -0.467587  -1.798670  -6.060050   1.822950   0.531736   3.534610  -1.604340   1.166030   7.052730  -3.250840   1.332550   0.055993   0.000395   2.189990   0.113187   5.438620  -3.940250   1.553470   1.753780 -69.745900  18.040400  -6.971720  -2.435730  -4.111030  -9.337920   9.327830  -2.512180  13.285600  42.970100  34.138200 -67.286700 -25.865900   0.000112   0.000145  -7.932970  -0.001664   0.011946 -42.696800   8.410870  -9.005000 -35.471600  -0.002714  -0.005841 -25.502700  -0.003273  -0.004847 -33.961100   3.218550  -4.768230 -51.142700  -0.011717  -0.005072 -34.061100  -0.004724  -0.004108 -34.516300  -0.219127   0.318720 -51.756500   0.001337  -0.000574 -34.482200   0.000000  -0.000440 -48.194800  -3.826760   3.411390 -72.467900   0.001333   0.001531 -48.260400   0.009233   0.001351   8.501380  -0.439841   9.592110  69.830800   9.897370  -3.460810   0.280914  -2.707990   8.070290 -13.246600 -14.258000  -1.617430 -42.748500  32.514100  64.395900  25.112200  -0.000176  -0.007855   7.556110  -0.002479  -0.000810  38.550900  11.377400  13.905400  32.680500   0.001208  -0.001235  22.932900   0.005251   0.007291  32.403100   4.909150   7.669910  49.100000  -0.001269  -0.008013  32.700500   0.002010   0.001166  32.528600   2.354750   3.676810  48.906600  -0.001834  -0.003991  32.571800  -0.006081  -0.004904  46.728900  -3.279210  -3.085640  70.225500  -0.003103  -0.000173  46.770200  -0.011171  -0.001698   3.083490  10.259000  -0.683119   1.119950   0.435371   2.642180  -2.842590  -4.038090  -1.347840  -0.000000   0.000000   0.000000   0.234323   4.507120  -2.368330   1.503580   5.260370  -1.165360  -3.553430  -2.861160  -2.922610   0.000000   0.000000   0.000000
  2.204890  89.481400  -0.466991  -1.796620  -6.095130   1.852750   0.531873   3.570460  -1.585330   1.166120   7.124640  -3.213220   1.342280   0.033759   0.000348   2.205140   0.068169   5.378890  -3.972160   1.527470   1.737780 -69.742700  18.094900  -7.000850  -2.430900  -4.142940  -9.322420   9.300800  -2.512610  13.264600  42.931800  34.101200 -67.272200 -25.883300   0.000123   0.000143  -7.941660  -0.001685   0.011947 -42.690500   8.429320  -9.027180 -35.471300  -0.002681  -0.005827 -25.502500  -0.003259  -0.004827 -33.976900   3.218690  -4.763370 -51.166300  -0.011699  -0.005064 -34.076800  -0.004723  -0.004092 -34.516300  -0.219127   0.318722 -51.756000   0.001352  -0.000536 -34.482200   0.000000  -0.000397 -48.194600  -3.826760   3.411430 -72.468000   0.001347   0.001549 -48.260100   0.009222   0.001366   8.485820  -0.524382   9.603010  69.816100   9.974100  -3.468610   0.302100  -2.693060   8.032010 -13.228900 -14.236500  -1.611010 -42.736600  32.520000  64.415600  25.131400  -0.000179  -0.007887   7.565680  -0.002470  -0.000805  38.515800  11.376700  13.920100  32.653000   0.001196  -0.001247  22.908100   0.005245   0.007290  32.388300   4.909060   7.669910  49.077300  -0.001276  -0.008003  32.685400   0.002013   0.001171  32.519900   2.354720   3.687190  48.893700  -0.001837  -0.003970  32.563200  -0.006068  -0.004900  46.712900  -3.279210  -3.084120  70.201700  -0.003084  -0.000151  46.754400  -0.011181  -0.001694   3.094700  10.307000  -0.670868   1.117660   0.404270   2.607070  -2.851710  -4.020770  -1.357990  -0.000000   0.000000  -0.000000   0.248306   4.347750  -2.368130   1.500850   5.454010  -1.190010  -3.565290  -2.871330  -2.935480  -0.000000   0.000000   0.000000
  2.193590  89.481300  -0.465217  -1.794600  -6.126790   1.878960   0.530852   3.604430  -1.562420   1.163570   7.192840  -3.167690   1.358300   0.009177   0.000360   2.231390   0.018478   5.298460  -4.000590   1.499630   1.717210 -69.731600  18.122900  -7.024650  -2.429090  -4.150060  -9.329110   9.290690  -2.515690  13.239800  42.935500  34.091100 -67.277900 -25.868400   0.000149   0.000143  -7.934200  -0.001716   0.011946 -42.687800   8.437460  -9.037990 -35.471900  -0.002629  -0.005806 -25.502900  -0.003236  -0.004797 -33.977600   3.218660  -4.762720 -51.167400  -0.011672  -0.005048 -34.077500  -0.004718  -0.004070 -34.516200  -0.225255   0.327622 -51.759300   0.001374  -0.000483 -34.482200   0.000039  -0.000334 -48.194200  -3.827370   3.411480 -72.468100   0.001368   0.001576 -48.259800   0.009205   0.001388   8.470800  -0.607042   9.588360  69.797800  10.085500  -3.446590   0.330748  -2.702840   7.979850 -13.213300 -14.209400  -1.607370 -42.717500  32.527500  64.431600  25.165100  -0.000177  -0.007909   7.582540  -0.002459  -0.000803  38.485100  11.375100  13.933000  32.628800   0.001186  -0.001264  22.886600   0.005235   0.007294  32.373400   4.908890   7.674080  49.054900  -0.001287  -0.007987  32.670500   0.002016   0.001177  32.512900   2.357060   3.693470  48.883500  -0.001843  -0.003936  32.556400  -0.006052  -0.004893  46.699200  -3.275460  -3.080680  70.180800  -0.003054  -0.000113  46.740500  -0.011198  -0.001689   3.105730  10.339900  -0.671334   1.117190   0.404690   2.595260  -2.864550  -4.010390  -1.376520  -0.000000   0.000000  -0.000000   0.258349   4.535530  -2.375730   1.514600   5.304720  -1.201850  -3.578770  -2.881470  -2.939630   0.000000   0.000000  -0.000000
  2.180610  89.481300  -0.462890  -1.792300  -6.162510   1.906320   0.527766   3.641990  -1.535900   1.156890   7.268300  -3.114860   1.382160  -0.019229   0.000445   2.270700  -0.038982   5.192690  -4.031510   1.469770   1.692960 -69.717400  18.151600  -7.051340  -2.428740  -4.153700  -9.343700   9.288390  -2.521270  13.216000  42.937700  34.087500 -67.280700 -25.853500   0.000183   0.000145  -7.926750  -0.001756   0.011945 -42.687100   8.440290  -9.042200 -35.473000  -0.002565  -0.005778 -25.504000  -0.003208  -0.004758 -33.977800   3.218470  -4.762070 -51.167600  -0.011637  -0.005028 -34.077600  -0.004711  -0.004042 -34.516100  -0.237282   0.345088 -51.765000   0.001403  -0.000417 -34.482200   0.000110  -0.000256 -48.193900  -3.828450   3.411540 -72.468100   0.001392   0.001609 -48.259600   0.009184   0.001416   8.455150  -0.693641   9.562700  69.780800  10.231100  -3.373550   0.364890  -2.728690   7.897050 -13.199100 -14.167400  -1.605580 -42.698800  32.549200  64.463000  25.211500  -0.000174  -0.007940   7.605740  -0.002448  -0.000800  38.446000  11.372600  13.949500  32.597900   0.001173  -0.001287  22.858600   0.005222   0.007301  32.355200   4.908680   7.681930  49.028100  -0.001300  -0.007967  32.652700   0.002019   0.001186  32.504800   2.361750   3.700310  48.871800  -0.001849  -0.003892  32.548600  -0.006032  -0.004884  46.684400  -3.268840  -3.076570  70.158100  -0.003016  -0.000070  46.725300  -0.011217  -0.001678   3.117420  10.369000  -0.674170   1.117000   0.407602   2.592830  -2.880840  -4.005530  -1.401450   0.000000   0.000000   0.000000   0.268750   4.723300  -2.387090   1.530670   5.155440  -1.213280  -3.592800  -2.892120  -2.942400   0.000000   0.000000   0.000000
